<!DOCTYPE svg PUBLIC "-//W3C//DTD SVG 1.1//EN" "http://www.w3.org/Graphics/SVG/1.1/DTD/svg11.dtd">
<!-- Uploaded to: SVG Repo, www.svgrepo.com, Transformed by: SVG Repo Mixer Tools -->
<svg fill="#000000" version="1.1" id="Capa_1" xmlns="http://www.w3.org/2000/svg" xmlns:xlink="http://www.w3.org/1999/xlink" width="80px" height="80px" viewBox="0 0 576.667 576.667" xml:space="preserve">
<g id="SVGRepo_bgCarrier" stroke-width="0"/>
<g id="SVGRepo_tracerCarrier" stroke-linecap="round" stroke-linejoin="round"/>
<g id="SVGRepo_iconCarrier"> <g> <g> <path d="M17.932,381.487c5.031-5.904,10.278-11.657,14.921-17.858c5.969-7.965,10.555-16.749,14.153-26.088 c3.529-9.168,7.65-18.111,11.359-27.214c1.607-3.94,2.876-8.025,4.207-12.076c0.853-2.6,2.595-4.26,5.516-5.643 c0,1.555,0.012,2.803,0,4.051c-0.204,19.111-0.49,38.222-0.583,57.333c-0.045,9.232,2.586,18.078,4.565,27.001 c0.657,2.966,1.542,5.879,2.326,8.812c1.44,5.41,0.551,10.625-1,15.896c-2.281,7.76-4.26,15.605-6.369,23.415 c-1.408,5.218-3.06,10.388-4.169,15.671c-2.55,12.146-1.958,24.37-0.253,36.564c0.901,6.431,1.832,12.804-0.159,19.246 c-0.775,2.513-1.33,5.242-1.229,7.842c0.188,4.77,3.387,7.854,8.115,8.348c4.521,0.473,9.054,0.914,13.591,1.122 c5.94,0.273,11.905,0.62,17.837,0.367c7.14-0.307,14.248-1.257,21.375-1.82c1.987-0.159,2.317-1.252,2.097-2.827 c-0.314-2.24-0.709-4.468-1.102-6.851c0.327-0.163,0.682-0.379,1.065-0.522c3.211-1.187,4.578-4.242,2.717-7.147 c-1.803-2.815-4.063-5.374-6.316-7.866c-2.06-2.281-4.675-4.104-6.516-6.532c-2.766-3.66-5.23-7.577-7.515-11.562 c-1.987-3.469-1.534-7.377-0.494-10.987c1.697-5.852,3.264-11.857,5.948-17.271c2.799-5.646,6.365-11.089,10.486-15.854 c5.202-6.018,11.326-11.24,17.014-16.847c5.777-5.688,9.723-12.407,11.562-20.363c0.722-3.125,1.665-6.205,2.697-9.245 c0.188-0.547,1.314-1.146,1.967-1.102c7.487,0.481,14.957,1.281,22.448,1.579c4.867,0.196,9.768-0.298,14.651-0.478 c1.224-0.045,2.456-0.036,3.68-0.081c9.792-0.343,19.621-0.282,29.359-1.184c6.475-0.6,12.53-3.374,18.34-6.43 c4.153-2.188,8.4-4.194,12.717-6.337c2.823,2.864,4.345,6.414,5.267,10.262c2.852,11.922,3.717,24.093,4.447,36.275 c0.388,6.442,1.057,12.885,1.044,19.327c-0.012,7.144-0.771,14.279-0.983,21.428c-0.114,3.835,0.596,7.711,0.314,11.521 c-0.478,6.414-1.297,12.815-2.293,19.177c-0.327,2.08-1.616,4.019-2.509,6.001c-2.428,5.369-1.877,10.103,1.795,13.55 c0.738,0.694,1.954,1.289,2.929,1.253c10.465-0.4,20.922-1.008,31.387-1.408c6.725-0.257,13.461-0.293,20.191-0.326 c0.895-0.004,2.029,0.347,2.645,0.951c2.387,2.317,5.406,2.321,8.324,2.362c8.334,0.118,16.67,0.045,25.01,0.036 c3.477-0.004,6.969,0.176,10.42-0.105c2.277-0.184,4.508-0.996,6.736-1.607c1.256-0.348,2.432-1.017,3.701-1.266 c5.295-1.027,5.365-2.203,4.328-7.642c-0.342-1.795-2.045-3.35-3.174-4.978c-1.061-1.53-2.139-3.056-3.318-4.5 c-0.395-0.485-1.234-0.592-1.676-1.057c-3.938-4.125-8.459-7.806-10.742-13.248c-0.568-1.347-0.895-2.844-1.057-4.3 c-1.143-10.155-2.596-20.294-3.188-30.482c-0.449-7.728,0.277-15.52,0.393-23.284c0.094-6.491-0.082-12.986,0.121-19.474 c0.242-7.687,0.332-15.419,1.25-23.036c1.465-12.134,1.281-24.264,0.652-36.377c-0.531-10.237-1.938-20.429-2.828-30.653 c-0.064-0.775,0.697-1.979,1.42-2.411c7.863-4.688,15.77-9.311,23.713-13.855c8.898-5.088,17.854-10.082,27.662-15.61 c1.689,1.946,3.627,4.3,5.691,6.532c1.836,1.979,3.865,3.778,5.713,5.744c2.371,2.518,4.77,5.022,6.916,7.724 c2.102,2.644,3.879,3.627,5.531,2.505c1.91-1.293,2.457-4.912,1.021-7.168c-0.557-0.869-1.201-1.705-1.926-2.436 c-5.549-5.606-8.111-12.865-11.057-19.915c-0.27-0.645-0.561-1.281-1.041-2.375c3.328-1.559,6.646-3.17,10.016-4.659 c2.311-1.02,4.66-1.979,7.055-2.771c4.488-1.485,7.891-4.41,10.889-7.895c1.857-2.154,4.273-3.37,6.672-1.759 c5.879,3.946,12.672,4.043,19.217,5.263c0.342,0.065,0.709,0.062,1.027,0.184c1.352,0.522,2.848,1.118,3.686-0.526 c0.457-0.898,0.232-2.146,0.371-3.946c1.256-1.734,3.928-1.061,6.266-1.338c2.588-0.31,5.211-0.58,7.811-0.486 c1.867,0.069,3.754,0.625,5.557,1.196c11.17,3.541,22.652,4.635,34.125,2.791c7.748-1.245,15.684-2.729,22.346-7.609 c4.424-3.239,8.467-6.732,9.502-12.489c0.217-1.179,0.033-2.432-0.395-4.072c-11.465,10.592-25.285,10.49-39.865,10.241 c3.773-3.758,9.762-4.892,9.334-11.869c-5.006,1.832-9.648,3.615-14.354,5.227c-5.133,1.758-10.334,3.195-15.98,0.686 c2.938-1.041,5.797-2.546,8.824-3.036c10.527-1.697,18.078-7.414,23.994-16.047c3.787-5.528,6.707-11.338,8.598-17.74 c1.99-6.744,1.938-13.635,1.631-20.539c-0.375-8.417-3.889-15.994-6.602-23.782c-2.791-8.013-4.332-16.324-3.301-24.733 c1.082-8.776,3.998-17.108,8.703-24.713c2.102-3.395,3.982-6.944,6.299-10.179c4.457-6.222,10.461-10.425,17.797-12.697 c2.061-0.636,4.076-1.436,6.145-2.04c1.918-0.559,1.67-2.313,1.168-3.178c-1.955-3.382-1.307-6.989-1.379-10.535 c-0.078-3.521-2.363-5.528-5.064-3.562c-4.447,3.243-9.682,3.68-14.492,5.528c-9.566,3.676-18.098,9.196-25.352,16.32 c-7.561,7.421-14.199,15.557-18.205,25.737c-3.342,8.495-7.434,16.752-8.957,25.786c-1.717,10.212-1.529,20.481,0.527,30.743 c0.99,4.941,1.064,10.086,1.244,15.149c0.045,1.306-0.844,2.832-1.705,3.941c-2.543,3.276-5.283,6.393-7.463,8.997 c-4.316-1.489-8.322-3.02-12.416-4.244c-4.133-1.232-7.895-2.982-11.305-5.688c-2.713-2.154-5.838-3.774-8.691-5.761 c-4.998-3.472-9.861-7.14-14.9-10.542c-3.533-2.387-7.176-4.644-10.93-6.663c-6.123-3.296-12.312-6.487-18.592-9.474 c-5.818-2.762-12.154-2.428-18.303-1.893c-8.584,0.747-16.766,3.215-24.229,7.67c-6.641,3.966-13.207,8.062-19.832,12.057 c-3.631,2.187-7.65,2.807-11.828,2.717c-2.338-0.049-4.709-0.273-7.01,0.013c-3.736,0.465-6.459-1.934-9.521-3.162 c-7.193-2.885-14.521-4.827-22.244-5.508c-6.158-0.542-12.27-1.566-18.422-2.187c-10.004-1.008-19.951-0.881-29.388,3.17 c-5.504,2.362-10.792,5.227-16.304,7.556c-1.448,0.612-3.452,0.379-5.088,0.024c-6.373-1.383-12.689-3.023-19.049-4.476 c-5.667-1.293-11.396-2.317-17.03-3.733c-10.216-2.57-19.812,0.429-29.364,3.219c-6.928,2.024-13.737,4.545-20.42,7.283 c-4.737,1.942-9.347,4.341-13.708,7.026c-7.087,4.361-14.312,8.646-20.771,13.843c-6.973,5.614-13.411,11.979-19.563,18.503 c-5.483,5.81-10.412,12.167-15.3,18.507c-3.705,4.806-7.315,9.755-10.311,15.01c-3.872,6.797-7.385,13.839-10.473,21.024 c-1.771,4.108-2.423,8.699-3.538,13.084c-1.179,4.644-2.146,9.343-3.492,13.934c-2.081,7.087-4.3,14.137-6.667,21.134 c-1.893,5.603-3.953,11.155-6.189,16.631c-1.901,4.667-4.104,9.212-6.267,13.77c-2.991,6.308-5.773,12.737-9.205,18.805 c-2.856,5.047-6.202,9.91-9.951,14.325c-1.971,2.313-5.483,3.239-7.952,5.23c-3.721,3.003-6.418,6.801-7.209,12.591 c2.689-1.232,4.912-2.068,6.957-3.224C11.449,389.32,14.647,385.338,17.932,381.487z M305.273,468.456 c1.379-2.771,2.195-5.933,2.689-9.009c1.387-8.588,2.514-17.218,3.668-25.843c0.967-7.226,1.836-14.463,2.75-21.697 c0.176,0.013,0.352,0.028,0.525,0.041c1.199,4.974,2.428,9.942,3.596,14.921c1.975,8.429,2.424,16.907,1.316,25.532 c-0.641,5.002-1.443,10.253,0.883,14.985c2.789,5.672,2.158,11.335,0.99,17.092c-0.693,3.431-1.68,6.801-2.736,10.991 c-1.412-1.705-2.307-2.717-3.127-3.786c-2.631-3.456-5.156-6.993-7.865-10.388C304.875,477.44,302.695,473.638,305.273,468.456z"/> </g> </g> </g>
</svg>